<?xml version="1.0" encoding="UTF-8"?> <!-- Generator: Adobe Illustrator 26.0.1, SVG Export Plug-In . SVG Version: 6.00 Build 0) --> <svg xmlns="http://www.w3.org/2000/svg" xmlns:xlink="http://www.w3.org/1999/xlink" version="1.1" id="Layer_1" x="0px" y="0px" viewBox="0 0 476.81 100.44" style="enable-background:new 0 0 476.81 100.44;" xml:space="preserve"> <style type="text/css"> .st0{fill:#8B8B8B;} </style> <g> <path class="st0" d="M17.72,49.11L0.84,1.4h16.18l10.32,31.53h0.28L38.22,1.4h14.51L35.85,49.11l17.72,49.94H37.39L26.23,65.01 h-0.28L14.51,99.05H0L17.72,49.11z"></path> <path class="st0" d="M72.68,1.4h20.79l15.9,97.65H94.02l-2.79-19.39v0.28H73.8l-2.79,19.11H56.78L72.68,1.4z M89.42,66.68 l-6.84-48.27h-0.28l-6.7,48.27H89.42z"></path> <path class="st0" d="M116.76,1.4h15.35v83.7h25.25v13.95h-40.6V1.4z"></path> <path class="st0" d="M164.75,1.4h23.44c7.62,0,13.34,2.05,17.16,6.14c3.81,4.09,5.72,10.09,5.72,18v49.38c0,7.91-1.91,13.9-5.72,18 c-3.81,4.09-9.53,6.14-17.16,6.14h-23.44V1.4z M187.91,85.1c2.51,0,4.44-0.74,5.79-2.23c1.35-1.49,2.02-3.91,2.02-7.25V24.83 c0-3.35-0.68-5.77-2.02-7.25c-1.35-1.49-3.28-2.23-5.79-2.23h-7.81V85.1H187.91z"></path> <path class="st0" d="M221.38,1.4h15.35v97.65h-15.35V1.4z"></path> <path class="st0" d="M252.91,94.09c-3.91-4.23-5.86-10.3-5.86-18.21V24.55c0-7.9,1.95-13.97,5.86-18.21 C256.82,2.12,262.49,0,269.93,0c7.44,0,13.11,2.12,17.02,6.35c3.91,4.23,5.86,10.3,5.86,18.21v8.37H278.3v-9.35 c0-6.42-2.65-9.63-7.95-9.63c-5.3,0-7.95,3.21-7.95,9.63v53.43c0,6.33,2.65,9.49,7.95,9.49c5.3,0,7.95-3.16,7.95-9.49V57.89h-7.67 V43.94h22.18v31.95c0,7.91-1.95,13.97-5.86,18.21c-3.91,4.23-9.58,6.35-17.02,6.35C262.49,100.44,256.82,98.33,252.91,94.09z"></path> <path class="st0" d="M302.71,1.4h15.34v97.65h-15.34V1.4z"></path> <path class="st0" d="M341.49,15.35h-16.04V1.4h47.43v13.95h-16.04v83.7h-15.35V15.35z"></path> <path class="st0" d="M392.13,1.4h20.79l15.9,97.65h-15.35l-2.79-19.39v0.28h-17.44l-2.79,19.11h-14.23L392.13,1.4z M408.87,66.68 l-6.83-48.27h-0.28l-6.7,48.27H408.87z"></path> <path class="st0" d="M436.21,1.4h15.34v83.7h25.25v13.95h-40.59V1.4z"></path> </g> </svg> 